<svg width="16" height="12" viewBox="0 0 16 12" fill="none" xmlns="http://www.w3.org/2000/svg">
  <path d="M8 2.5C8 3.88071 6.88071 5 5.5 5C4.11929 5 3 3.88071 3 2.5C3 1.11929 4.11929 0 5.5 0C6.88071 0 8 1.11929 8 2.5Z" fill="currentColor"></path>
  <path d="M2 7L0 9V12H8V7H2Z" fill="currentColor"></path>
  <path d="M16 9L14 7H10V12H16V9Z" fill="currentColor"></path>
  <path d="M12 5C13.1046 5 14 4.10457 14 3C14 1.89543 13.1046 1 12 1C10.8954 1 10 1.89543 10 3C10 4.10457 10.8954 5 12 5Z" fill="currentColor"></path>
</svg>
