<svg width="20" height="16" viewBox="0 0 20 16" fill="none" xmlns="http://www.w3.org/2000/svg">
  <path d="M3.78981 0L7.00637 0.59725L14.9045 8.89587L16.4331 7.88998L17.707 9.27308L16.1146 10.8448L18.3439 13.0452L19.3631 12.5422L20 13.611L19.0446 15.057L17.5796 16L16.5605 15.3084L17.0701 14.3026L14.8408 12.1022L13.2484 13.6739L11.8471 12.4165L12.8662 10.9077L10 8.26719L7.13376 10.9077L8.21656 12.4165L6.81529 13.6739L5.22293 12.1022L2.99363 14.3026L3.43949 15.2456L2.42038 15.9371L0.955414 14.9941L0 13.5481L0.700637 12.5422L1.71975 13.0452L3.94904 10.8448L2.35669 9.27308L3.56688 7.95285L5.09554 8.95874L7.70701 6.19253L4.3949 3.17485L3.78981 0ZM16.2102 0L15.6051 3.17485L13.5032 5.12377L11.1465 2.60904L12.9936 0.59725L16.2102 0Z" fill="currentColor"></path>
</svg>
